<svg xmlns="http://www.w3.org/2000/svg" width="78.56" height="60.87" viewBox="0 0 78.56 60.87">
  <defs>
    <style>
      .cls-1 {
        fill: #f26522;
        fill-rule: evenodd;
      }
    </style>
  </defs>
  <path id="Forma_1" data-name="Forma 1" class="cls-1" d="M1399.13,1378.6l-12.46-9.3v-3.73a1.611,1.611,0,0,0-.66-1.3l-24.52-18.29a1.65,1.65,0,0,0-1.98,0l-24.52,18.29a1.611,1.611,0,0,0-.66,1.3v3.73l-12.46,9.3a1.629,1.629,0,0,0-.65,1.3v16.47a1.632,1.632,0,0,0,1.64,1.63h75.28a1.632,1.632,0,0,0,1.64-1.63V1379.9A1.629,1.629,0,0,0,1399.13,1378.6Zm-36.85,16.14h-3.56v-8.22h3.56v8.22Zm3.3,0v-9.85a1.641,1.641,0,0,0-1.65-1.63h-6.86a1.641,1.641,0,0,0-1.65,1.63v9.85h-17.79v-28.36l22.87-17.06,22.87,17.06v28.36h-17.79Zm-41.07-14.03,9.82-7.32v21.35h-9.82v-14.03Zm71.98,14.03h-9.82v-21.35l9.82,7.32v14.03Zm-72.63-26.62,36.64-27.34,36.64,27.34a1.685,1.685,0,0,0,2.31-.32,1.622,1.622,0,0,0-.32-2.29l-37.64-28.07a1.65,1.65,0,0,0-1.98,0l-37.64,28.07a1.622,1.622,0,0,0-.32,2.29A1.672,1.672,0,0,0,1323.86,1368.12Z" transform="translate(-1321.22 -1337.13)"/>
</svg>
