<svg xmlns="http://www.w3.org/2000/svg" width="58.594" height="54.84" viewBox="0 0 58.594 54.84">
  <defs>
    <style>
      .cls-1 {
        fill: #f26522;
        fill-rule: evenodd;
      }
    </style>
  </defs>
  <path id="Forma_1" data-name="Forma 1" class="cls-1" d="M534.248,1368.06l26.252-23.51,26.254,23.51a1.793,1.793,0,0,0,2.581-.19,1.941,1.941,0,0,0-.179-2.67L561.7,1340.62a1.778,1.778,0,0,0-2.4,0l-9.784,8.76v-3.55a3.662,3.662,0,1,0-7.321,0v10.1l-10.352,9.27a1.939,1.939,0,0,0-.183,2.67A1.8,1.8,0,0,0,534.248,1368.06Zm18.931,8.03h14.644V1395H578.8a3.731,3.731,0,0,0,3.661-3.78v-18.54a3.794,3.794,0,0,0-1.345-2.92l-18.3-15.51a3.557,3.557,0,0,0-4.638,0l-18.3,15.51a3.79,3.79,0,0,0-1.341,2.92v18.54A3.728,3.728,0,0,0,542.2,1395h10.981v-18.91Z" transform="translate(-531.219 -1340.16)"/>
</svg>
