<svg xmlns="http://www.w3.org/2000/svg" width="70.844" height="72" viewBox="0 0 70.844 72">
  <defs>
    <style>
      .cls-1 {
        fill: #f26522;
        fill-rule: evenodd;
      }
    </style>
  </defs>
  <path id="Forma_1" data-name="Forma 1" class="cls-1" d="M942.244,1350.66v22.7h4.895v-26.03L962.08,1337l14.607,10.32v32.01c1.247-1.04,2.483-2.09,3.677-3.19,0.412-.39.816-0.77,1.219-1.16v-24.59l2.922,2.01,2.764-4.06-23.786-16.37-1.373-.97-1.4.97-10.99,7.57v-3.85h-6.16v8.09l-6.414,4.42,2.765,4.06Zm20.84,22.15v-2.95a5.5,5.5,0,0,0,4.656-5.39c0-2.68-1.442-4.36-4.8-5.63-2.265-.91-2.991-1.45-2.991-2.21,0-.87.775-1.39,2.072-1.39a7.385,7.385,0,0,1,3.363.82l0.728,0.33,1.049-3.59-0.407-.21a9.169,9.169,0,0,0-3.5-.94v-2.61h-3.345v2.82c-2.748.65-4.435,2.6-4.435,5.16,0,3.18,2.59,4.55,5.122,5.47,2.324,0.86,2.645,1.61,2.645,2.29,0,1-.933,1.64-2.376,1.64a8.2,8.2,0,0,1-4.02-1.14l-0.605-.36-1.048,3.67,0.33,0.22a9.4,9.4,0,0,0,4.221,1.28v2.72h3.345Zm32.769,11.36c-0.131-1.6-1.3-2.84-3.014-4.22a10.381,10.381,0,0,0-6.129-2.08c-2.2,0-5.4.8-8.11,4.63a13.065,13.065,0,0,1-7.981,4.88,5.787,5.787,0,0,0,.371-2.18c0.022-5.32-4.189-9.32-10.012-9.34l-20.787.02a10.211,10.211,0,0,0-5.49,1.62v-2.72H925V1403h9.7v-3a7.435,7.435,0,0,1,.872.55,14.934,14.934,0,0,0,6.9,2.07h19.1a44.276,44.276,0,0,0,31.927-13.87C994.725,1387.38,996,1385.96,995.853,1384.17Zm-64.4-3.16h-3.39v-3.41h3.391v3.41h0Zm59.525,5.45a40.836,40.836,0,0,1-29.409,12.75h-19.1c-3.229,0-6.706-2.55-6.738-2.57a1.69,1.69,0,0,0-1.009-.33H934.7v-15.04a1.663,1.663,0,0,0,1.047-.33l0.371-.28a6.68,6.68,0,0,1,4.064-1.37l20.779-.02c3.315,0.01,6.654,1.93,6.636,5.91,0,2.3-1.524,2.42-1.606,2.44H950.761a1.705,1.705,0,0,0,0,3.41h17.067a16.946,16.946,0,0,0,13.469-6.46c0.014-.02.03-0.05,0.044-0.07,1.51-2.14,3.316-3.22,5.369-3.22a7.03,7.03,0,0,1,4.016,1.34c1.7,1.36,1.746,1.81,1.748,1.83A7.816,7.816,0,0,1,990.976,1386.46Z" transform="translate(-925 -1331)"/>
</svg>
